<svg width="16" height="91" viewBox="0 0 16 91" fill="none" xmlns="http://www.w3.org/2000/svg">
<path d="M7.29289 90.7071C7.68342 91.0976 8.31658 91.0976 8.70711 90.7071L15.0711 84.3431C15.4616 83.9526 15.4616 83.3195 15.0711 82.9289C14.6805 82.5384 14.0474 82.5384 13.6569 82.9289L8 88.5858L2.34315 82.9289C1.95262 82.5384 1.31946 82.5384 0.928932 82.9289C0.538408 83.3195 0.538408 83.9526 0.928932 84.3431L7.29289 90.7071ZM7 0V2.8125H9V0L7 0ZM7 8.4375V14.0625H9V8.4375H7ZM7 19.6875L7 25.3125H9V19.6875H7ZM7 30.9375V36.5625H9V30.9375H7ZM7 42.1875V47.8125H9V42.1875H7ZM7 53.4375V59.0625H9V53.4375H7ZM7 64.6875L7 70.3125H9V64.6875H7ZM7 75.9375L7 81.5625H9V75.9375H7ZM7 87.1875V90H9V87.1875H7ZM7.29289 90.7071C7.68342 91.0976 8.31658 91.0976 8.70711 90.7071L15.0711 84.3431C15.4616 83.9526 15.4616 83.3195 15.0711 82.9289C14.6805 82.5384 14.0474 82.5384 13.6569 82.9289L8 88.5858L2.34315 82.9289C1.95262 82.5384 1.31946 82.5384 0.928932 82.9289C0.538408 83.3195 0.538408 83.9526 0.928932 84.3431L7.29289 90.7071ZM7 0V2.8125H9V0L7 0ZM7 8.4375V14.0625H9V8.4375H7ZM7 19.6875L7 25.3125H9V19.6875H7ZM7 30.9375V36.5625H9V30.9375H7ZM7 42.1875V47.8125H9V42.1875H7ZM7 53.4375V59.0625H9V53.4375H7ZM7 64.6875L7 70.3125H9V64.6875H7ZM7 75.9375L7 81.5625H9V75.9375H7ZM7 87.1875V90H9V87.1875H7Z" fill="black"/>
</svg>
